<?xml version="1.0" encoding="iso-8859-1"?>
<!-- Uploaded to: SVG Repo, www.svgrepo.com, Generator: SVG Repo Mixer Tools -->
<svg fill="#000000" height="800px" width="800px" version="1.1" id="Layer_1" xmlns="http://www.w3.org/2000/svg" xmlns:xlink="http://www.w3.org/1999/xlink" 
	 viewBox="0 0 512 512" xml:space="preserve">
<defs>
  <linearGradient id="purpleVioletGradient" x1="0" y1="0" x2="1" y2="1">
    <stop offset="0%" stop-color="#a18cd1" />
    <stop offset="100%" stop-color="#fbc2eb" />
  </linearGradient>
</defs>
<g>
	<g>
		<path fill="url(#purpleVioletGradient)" d="M509.562,249.384c-2.656-3.116-66.076-76.648-155.396-106.895c-24.733-8.376-49.322-12.622-73.084-12.622
			c-74.844,0-140.828,41.392-183.002,76.118c-7.323,6.03-17.963,6.022-25.304-0.02c-18.728-15.415-38.094-28.809-57.559-39.81
			c-3.158-1.785-7.025-1.757-10.158,0.069C1.927,168.054,0,171.408,0,175.035v161.931c0,3.628,1.927,6.981,5.059,8.81
			c3.133,1.827,7.001,1.853,10.158,0.069c19.465-11.001,38.83-24.394,57.56-39.81c7.337-6.039,17.981-6.049,25.303-0.02
			c42.175,34.725,108.159,76.118,183.002,76.118c32.675,0,66.598-7.971,100.825-23.693c74.688-34.307,125.527-93.327,127.654-95.823
			C512.813,258.805,512.813,253.195,509.562,249.384z M281.082,361.734c-68.796,0-130.439-38.863-170.036-71.466
			c-7.414-6.104-16.503-9.156-25.596-9.156c-9.103,0-18.208,3.058-25.637,9.173c-12.906,10.622-26.11,20.224-39.416,28.67v-23.774
			h12.095c5.632,0,10.199-4.567,10.199-10.199c0-5.632-4.567-10.199-10.199-10.199H20.398v-8.584h33.276
			c5.632,0,10.199-4.567,10.199-10.199c0-5.632-4.567-10.199-10.199-10.199H20.398v-8.585h12.095
			c5.632,0,10.199-4.567,10.199-10.199c0-5.632-4.567-10.199-10.199-10.199H20.398v-23.774c13.306,8.446,26.509,18.047,39.415,28.67
			c14.851,12.225,36.397,12.233,51.233,0.018c39.597-32.603,101.24-71.466,170.036-71.466c16.544,0,33.592,2.293,50.863,6.828
			c-19.844,23.449-30.965,53.388-30.965,84.414c0,24.685,6.924,48.723,20.025,69.515c9.007,14.296,20.646,26.655,34.233,36.451
			C329.946,356.946,305.077,361.734,281.082,361.734z M377.931,337.77c-35.004-19.494-56.553-55.937-56.553-96.262
			c0-29.109,11.606-57.082,32.028-77.66c66.003,24.177,117.51,74.171,134.575,92.154
			C473.091,271.705,431.968,311.807,377.931,337.77z"/>
	</g>
</g>
<g>
	<g>
		<path d="M374.162,195.637c-16.381,0-29.707,13.326-29.707,29.707c0,16.381,13.326,29.707,29.707,29.707
			s29.707-13.326,29.707-29.707C403.869,208.963,390.543,195.637,374.162,195.637z M374.162,234.653
			c-5.132,0-9.309-4.177-9.309-9.309c0-5.132,4.177-9.309,9.309-9.309s9.309,4.177,9.309,9.309
			C383.471,230.477,379.295,234.653,374.162,234.653z"/>
	</g>
</g>
<g>
	<g>
		<path d="M281.605,207.543l-10.625-10.625l10.067-10.066c3.983-3.983,3.983-10.441,0-14.425c-3.984-3.982-10.44-3.982-14.425,0
			l-17.277,17.277c-3.983,3.983-3.983,10.441,0,14.425l17.836,17.837c1.992,1.991,4.602,2.987,7.212,2.987s5.22-0.996,7.212-2.987
			C285.588,217.985,285.588,211.528,281.605,207.543z"/>
	</g>
</g>
<g>
	<g>
		<path d="M291.637,324.031l-10.623-10.621l10.067-10.067c3.983-3.983,3.983-10.441,0-14.425c-3.984-3.982-10.44-3.982-14.425,0
			l-17.278,17.279c-1.912,1.913-2.987,4.507-2.987,7.212s1.075,5.3,2.987,7.212l17.836,17.835c1.992,1.991,4.602,2.987,7.212,2.987
			s5.221-0.996,7.212-2.987C295.62,334.472,295.62,328.015,291.637,324.031z"/>
	</g>
</g>
<g>
	<g>
		<path d="M249.277,267.737l-10.622-10.622l10.066-10.066c3.983-3.983,3.983-10.441,0-14.425c-3.984-3.982-10.44-3.982-14.425,0
			l-17.277,17.277c-3.983,3.983-3.983,10.441,0,14.425l17.835,17.835c1.992,1.991,4.602,2.987,7.212,2.987s5.22-0.996,7.212-2.987
			C253.259,278.179,253.259,271.721,249.277,267.737z"/>
	</g>
</g>
<g>
	<g>
		<path d="M174.589,239.312l-10.623-10.623l10.067-10.067c3.983-3.983,3.983-10.441,0-14.425c-3.984-3.982-10.44-3.982-14.425,0
			l-17.278,17.279c-3.983,3.983-3.983,10.441,0,14.425l17.835,17.835c1.993,1.992,4.603,2.988,7.213,2.988
			c2.611,0,5.22-0.997,7.212-2.987C178.572,249.754,178.572,243.296,174.589,239.312z"/>
	</g>
</g>
<g>
	<g>
		<path d="M194.655,304.524l-10.623-10.622l10.067-10.067c3.983-3.984,3.983-10.441,0-14.425c-3.984-3.982-10.442-3.982-14.425,0
			l-17.277,17.279c-3.983,3.983-3.983,10.441,0,14.425l17.835,17.835c1.992,1.991,4.602,2.987,7.212,2.987s5.22-0.996,7.212-2.987
			C198.638,314.966,198.638,308.508,194.655,304.524z"/>
	</g>
</g>
<g>
	<g>
		<path d="M93.805,245.801h-7.802c-5.632,0-10.199,4.567-10.199,10.199c0,5.632,4.567,10.199,10.199,10.199h7.802
			c5.632,0,10.199-4.567,10.199-10.199C104.004,250.368,99.437,245.801,93.805,245.801z"/>
	</g>
</g>
</svg>